General
-----------------------------------------------------------------
Format                                   : MPEG-4
Format profile                           : Base Media / Version 2
Codec ID                                 : mp42
File size                                : 178 MiB
Duration                                 : 45mn 1s
Overall bit rate mode                    : Variable
Overall bit rate                         : 551 Kbps

Video
-----------------------------------------------------------------
ID                                       : 1
Format                                   : AVC
Format/Info                              : Advanced Video Codec
Format profile                           : Baseline@L2.1
Format settings, CABAC                   : No
Format settings, ReFrames                : 1 frame
Codec ID                                 : avc1
Codec ID/Info                            : Advanced Video Coding
Duration                                 : 45mn 1s
Bit rate                                 : 453 Kbps
Maximum bit rate                         : 1 576 Kbps
Width                                    : 472 pixels
Height                                   : 360 pixels
Display aspect ratio                     : 4:3
Frame rate mode                          : Constant
Frame rate                               : 25.000 fps
Color space                              : YUV
Chroma subsampling                       : 4:2:0
Bit depth                                : 8 bits
Scan type                                : Progressive
Bits/(Pixel*Frame)                       : 0.107
Stream size                              : 146 MiB (82%)

Audio
-----------------------------------------------------------------
ID                                       : 2
Format                                   : AAC
Format/Info                              : Advanced Audio Codec
Format profile                           : LC
Codec ID                                 : 40
Duration                                 : 45mn 1s
Bit rate mode                            : Variable
Bit rate                                 : 96.0 Kbps
Maximum bit rate                         : 103 Kbps
Channel(s)                               : 2 channels
Channel positions                        : Front: L R
Sampling rate                            : 44.1 KHz
Compression mode                         : Lossy
Stream size                              : 30.9 MiB (17%)

Screens
----------------------------------------------------------------- 
http://share.pho.to/2SyV4/original 
http://share.pho.to/2SyV5/original 
http://share.pho.to/2SyVB/original 
http://share.pho.to/2SyVC/original

Enjoy ;)